<svg width="8" height="7" viewBox="0 0 8 7" fill="none" xmlns="http://www.w3.org/2000/svg">
<path d="M0.571428 2.91923H6.28571L4.40571 0.998682C4.35215 0.944414 4.30964 0.87985 4.28063 0.808715C4.25162 0.737579 4.23669 0.661279 4.23669 0.584216C4.23669 0.507154 4.25162 0.430854 4.28063 0.359718C4.30964 0.288582 4.35215 0.224019 4.40571 0.169751C4.51278 0.0610265 4.65761 0 4.80857 0C4.95953 0 5.10436 0.0610265 5.21143 0.169751L7.66286 2.67989C7.87748 2.89784 7.99872 3.19384 8 3.50299C7.99722 3.8101 7.87609 4.10373 7.66286 4.32024L5.21143 6.83038C5.15815 6.88443 5.09497 6.92722 5.0255 6.95633C4.95603 6.98543 4.88163 7.00027 4.80655 7C4.73147 6.99972 4.65717 6.98435 4.58791 6.95475C4.51864 6.92514 4.45576 6.88189 4.40286 6.82746C4.34995 6.77304 4.30806 6.70849 4.27957 6.63753C4.25109 6.56656 4.23656 6.49055 4.23682 6.41385C4.23709 6.33715 4.25214 6.26125 4.28112 6.19049C4.3101 6.11973 4.35243 6.0555 4.40571 6.00145L6.28571 4.08674H0.571428C0.419876 4.08674 0.27453 4.02524 0.167367 3.91576C0.0602031 3.80629 0 3.65781 0 3.50299C0 3.34816 0.0602031 3.19968 0.167367 3.09021C0.27453 2.98073 0.419876 2.91923 0.571428 2.91923Z" fill="#25A246"/>
</svg>
